<svg width="20" height="20" viewBox="0 0 20 20" fill="none" xmlns="http://www.w3.org/2000/svg">
<g clip-path="url(#clip0_113_318)">
<path fill-rule="evenodd" clip-rule="evenodd" d="M6.221 0.888343C7.1985 0.843343 7.51016 0.833344 10.0002 0.833344C12.4902 0.833344 12.8018 0.844177 13.7785 0.888343C14.7552 0.93251 15.4218 1.08834 16.0052 1.31418C16.616 1.54501 17.1702 1.90584 17.6285 2.37251C18.0952 2.83001 18.4552 3.38334 18.6852 3.99501C18.9118 4.57834 19.0668 5.24501 19.1118 6.22001C19.1568 7.19918 19.1668 7.51084 19.1668 10C19.1668 12.49 19.156 12.8017 19.1118 13.7792C19.0677 14.7542 18.9118 15.4208 18.6852 16.0042C18.4552 16.6159 18.0946 17.1702 17.6285 17.6283C17.1702 18.095 16.616 18.455 16.0052 18.685C15.4218 18.9117 14.7552 19.0667 13.7802 19.1117C12.8018 19.1567 12.4902 19.1667 10.0002 19.1667C7.51016 19.1667 7.1985 19.1558 6.221 19.1117C5.246 19.0675 4.57933 18.9117 3.996 18.685C3.38426 18.455 2.83001 18.0944 2.37183 17.6283C1.90548 17.1706 1.54459 16.6166 1.31433 16.005C1.0885 15.4217 0.933496 14.755 0.888496 13.78C0.843496 12.8008 0.833496 12.4892 0.833496 10C0.833496 7.51001 0.844329 7.19834 0.888496 6.22168C0.932663 5.24501 1.0885 4.57834 1.31433 3.99501C1.54493 3.38341 1.9061 2.82944 2.37266 2.37168C2.8302 1.90543 3.38389 1.54455 3.99516 1.31418C4.5785 1.08834 5.24516 0.933343 6.22016 0.888343H6.221ZM13.7043 2.53834C12.7377 2.49418 12.4477 2.48501 10.0002 2.48501C7.55266 2.48501 7.26266 2.49418 6.296 2.53834C5.40183 2.57918 4.91683 2.72834 4.5935 2.85418C4.166 3.02084 3.86016 3.21834 3.53933 3.53918C3.2352 3.83505 3.00115 4.19525 2.85433 4.59334C2.7285 4.91668 2.57933 5.40168 2.5385 6.29584C2.49433 7.26251 2.48516 7.55251 2.48516 10C2.48516 12.4475 2.49433 12.7375 2.5385 13.7042C2.57933 14.5983 2.7285 15.0833 2.85433 15.4067C3.001 15.8042 3.23516 16.165 3.53933 16.4608C3.83516 16.765 4.196 16.9992 4.5935 17.1458C4.91683 17.2717 5.40183 17.4208 6.296 17.4617C7.26266 17.5058 7.55183 17.515 10.0002 17.515C12.4485 17.515 12.7377 17.5058 13.7043 17.4617C14.5985 17.4208 15.0835 17.2717 15.4068 17.1458C15.8343 16.9792 16.1402 16.7817 16.461 16.4608C16.7652 16.165 16.9993 15.8042 17.146 15.4067C17.2718 15.0833 17.421 14.5983 17.4618 13.7042C17.506 12.7375 17.5152 12.4475 17.5152 10C17.5152 7.55251 17.506 7.26251 17.4618 6.29584C17.421 5.40168 17.2718 4.91668 17.146 4.59334C16.9793 4.16584 16.7818 3.86001 16.461 3.53918C16.1651 3.23507 15.8049 3.00102 15.4068 2.85418C15.0835 2.72834 14.5985 2.57918 13.7043 2.53834ZM8.82933 12.8258C9.48321 13.098 10.2113 13.1348 10.8893 12.9298C11.5672 12.7248 12.153 12.2908 12.5465 11.7019C12.94 11.113 13.1169 10.4057 13.0469 9.70093C12.9769 8.99613 12.6643 8.33749 12.1627 7.83751C11.8429 7.51791 11.4562 7.27319 11.0304 7.12097C10.6047 6.96875 10.1505 6.91281 9.70058 6.95719C9.25063 7.00157 8.81612 7.14516 8.42833 7.37762C8.04054 7.61008 7.70912 7.92563 7.45792 8.30155C7.20671 8.67748 7.04199 9.10442 6.97559 9.55164C6.9092 9.99887 6.94279 10.4553 7.07395 10.8879C7.2051 11.3206 7.43056 11.7189 7.7341 12.0539C8.03763 12.389 8.41168 12.6527 8.82933 12.8258ZM6.6685 6.66834C7.10602 6.23082 7.62543 5.88376 8.19708 5.64698C8.76873 5.41019 9.38142 5.28832 10.0002 5.28832C10.6189 5.28832 11.2316 5.41019 11.8032 5.64698C12.3749 5.88376 12.8943 6.23082 13.3318 6.66834C13.7694 7.10586 14.1164 7.62528 14.3532 8.19693C14.59 8.76857 14.7119 9.38126 14.7119 10C14.7119 10.6188 14.59 11.2314 14.3532 11.8031C14.1164 12.3747 13.7694 12.8942 13.3318 13.3317C12.4482 14.2153 11.2498 14.7117 10.0002 14.7117C8.75055 14.7117 7.55211 14.2153 6.6685 13.3317C5.78488 12.4481 5.28848 11.2496 5.28848 10C5.28848 8.75039 5.78488 7.55196 6.6685 6.66834ZM15.7568 5.99001C15.8653 5.88773 15.952 5.76474 16.0121 5.62832C16.0721 5.4919 16.1042 5.34482 16.1063 5.19579C16.1085 5.04675 16.0808 4.8988 16.0247 4.76069C15.9687 4.62257 15.8855 4.4971 15.7801 4.39171C15.6747 4.28632 15.5493 4.20314 15.4112 4.14711C15.273 4.09108 15.1251 4.06332 14.9761 4.0655C14.827 4.06767 14.6799 4.09972 14.5435 4.15976C14.4071 4.21979 14.2841 4.30659 14.1818 4.41501C13.9829 4.62587 13.874 4.90594 13.8782 5.19579C13.8825 5.48563 13.9995 5.76241 14.2045 5.96738C14.4094 6.17235 14.6862 6.28937 14.9761 6.29359C15.2659 6.29782 15.546 6.18892 15.7568 5.99001Z" fill="black"/>
</g>
<defs>
<clipPath id="clip0_113_318">
<rect width="20" height="20" fill="white"/>
</clipPath>
</defs>
</svg>
