<svg width="100" height="100" viewBox="0 0 100 100" fill="none" xmlns="http://www.w3.org/2000/svg">
<path d="M37.4999 20.8333H29.1666C26.9564 20.8333 24.8368 21.7113 23.274 23.2741C21.7112 24.8369 20.8333 26.9565 20.8333 29.1667V79.1667C20.8333 81.3768 21.7112 83.4964 23.274 85.0592C24.8368 86.622 26.9564 87.5 29.1666 87.5H70.8333C73.0434 87.5 75.163 86.622 76.7258 85.0592C78.2886 83.4964 79.1666 81.3768 79.1666 79.1667V29.1667C79.1666 26.9565 78.2886 24.8369 76.7258 23.2741C75.163 21.7113 73.0434 20.8333 70.8333 20.8333H62.4999M37.4999 20.8333C37.4999 23.0435 38.3779 25.1631 39.9407 26.7259C41.5035 28.2887 43.6231 29.1667 45.8333 29.1667H54.1666C56.3767 29.1667 58.4963 28.2887 60.0591 26.7259C61.6219 25.1631 62.4999 23.0435 62.4999 20.8333M37.4999 20.8333C37.4999 18.6232 38.3779 16.5036 39.9407 14.9408C41.5035 13.378 43.6231 12.5 45.8333 12.5H54.1666C56.3767 12.5 58.4963 13.378 60.0591 14.9408C61.6219 16.5036 62.4999 18.6232 62.4999 20.8333M49.9999 50H62.4999M49.9999 66.6667H62.4999M37.4999 50H37.5416M37.4999 66.6667H37.5416" stroke="black" stroke-width="8.33333" stroke-linecap="round" stroke-linejoin="round"/>
</svg>
