<svg width="100" height="100" viewBox="0 0 100 100" fill="none" xmlns="http://www.w3.org/2000/svg">
<path d="M13 65L21 55L13 55L13 65Z" fill="#D9D9D9"/>
<path fill-rule="evenodd" clip-rule="evenodd" d="M13 65L13 55L21 55L13 65Z" fill="black"/>
<path d="M22.1445 34.5977C22.1445 31.8867 22.9219 29.6875 24.4766 28C26.0391 26.3125 28.1133 25.4688 30.6992 25.4688C33.1523 25.4688 35.125 26.2891 36.6172 27.9297C38.1172 29.5625 38.8672 31.6602 38.8672 34.2227C38.8672 37.1523 37.9727 39.4648 36.1836 41.1602L40.5195 45.3203H35.3984L33.0664 42.9531C32.2539 43.1875 31.375 43.3047 30.4297 43.3047C27.9609 43.3047 25.9609 42.4883 24.4297 40.8555C22.9062 39.2227 22.1445 37.1367 22.1445 34.5977ZM25.6602 34.4102C25.6602 36.1602 26.0898 37.5977 26.9492 38.7227C27.8164 39.8398 28.9922 40.3984 30.4766 40.3984C32.0156 40.3984 33.2109 39.8672 34.0625 38.8047C34.9219 37.7344 35.3516 36.2852 35.3516 34.457C35.3516 32.5742 34.9375 31.0898 34.1094 30.0039C33.2812 28.918 32.1094 28.375 30.5938 28.375C29.0625 28.375 27.8555 28.9453 26.9727 30.0859C26.0977 31.2188 25.6602 32.6602 25.6602 34.4102Z" fill="black"/>
<path fill-rule="evenodd" clip-rule="evenodd" d="M24.1088 27.6612L24.1097 27.6603C25.7791 25.8573 27.9932 24.9688 30.6992 24.9688C33.2761 24.9688 35.3888 25.8365 36.9863 27.5924C38.5836 29.3316 39.3672 31.5562 39.3672 34.2227C39.3672 37.0584 38.5554 39.3848 36.8971 41.1518L41.7629 45.8203H35.1891L32.9149 43.5118C32.1358 43.708 31.3067 43.8047 30.4297 43.8047C27.8385 43.8047 25.701 42.9421 24.065 41.1975L24.0641 41.1966C22.4423 39.4584 21.6445 37.2447 21.6445 34.5977C21.6445 31.7854 22.454 29.4574 24.1088 27.6612ZM33.0664 42.9531L35.3984 45.3203H40.5195L36.1836 41.1602C36.3053 41.0448 36.4229 40.9267 36.5363 40.8056C38.0902 39.1474 38.8672 36.9531 38.8672 34.2227C38.8672 31.6602 38.1172 29.5625 36.6172 27.9297C35.125 26.2891 33.1523 25.4688 30.6992 25.4688C28.1133 25.4688 26.0391 26.3125 24.4766 28C22.9219 29.6875 22.1445 31.8867 22.1445 34.5977C22.1445 37.1367 22.9062 39.2227 24.4297 40.8555C25.9609 42.4883 27.9609 43.3047 30.4297 43.3047C31.375 43.3047 32.2539 43.1875 33.0664 42.9531ZM33.6726 38.4916C34.4402 37.5357 34.8516 36.2092 34.8516 34.457C34.8516 32.643 34.4524 31.2783 33.7118 30.3071C32.9896 29.36 31.9731 28.875 30.5938 28.875C29.2062 28.875 28.1496 29.3822 27.3681 30.392C26.5748 31.4191 26.1602 32.7457 26.1602 34.4102C26.1602 36.0761 26.5678 37.3989 27.3454 38.4176C28.1124 39.4049 29.1385 39.8984 30.4766 39.8984C31.8863 39.8984 32.9291 39.4193 33.6726 38.4916ZM26.9727 30.0859C27.8555 28.9453 29.0625 28.375 30.5938 28.375C32.1094 28.375 33.2812 28.918 34.1094 30.0039C34.9375 31.0898 35.3516 32.5742 35.3516 34.457C35.3516 36.2852 34.9219 37.7344 34.0625 38.8047C33.2109 39.8672 32.0156 40.3984 30.4766 40.3984C28.9922 40.3984 27.8164 39.8398 26.9492 38.7227C26.0898 37.5977 25.6602 36.1602 25.6602 34.4102C25.6602 32.6602 26.0977 31.2188 26.9727 30.0859Z" fill="black"/>
<path d="M86 93L78 83L86 83L86 93Z" fill="#D9D9D9"/>
<path fill-rule="evenodd" clip-rule="evenodd" d="M86 93L86 83L78 83L86 93Z" fill="black"/>
<path d="M75.7266 72H72.082L70.6875 67.875H64.207L62.8477 72H59.2031L65.5898 54.75H69.4453L75.7266 72ZM69.8555 65.2266L67.7461 58.9805C67.6602 58.7305 67.5703 58.2539 67.4766 57.5508H67.3945C67.332 58.0742 67.2344 58.543 67.1016 58.957L64.9805 65.2266H69.8555Z" fill="black"/>
<path fill-rule="evenodd" clip-rule="evenodd" d="M76.4408 72.5H71.7233L70.3288 68.375H64.5687L63.2094 72.5H58.4849L65.2418 54.25H69.7954L76.4408 72.5ZM64.2071 67.875H70.6875L72.0821 72H75.7266L69.4453 54.75H65.5899L59.2032 72H62.8477L64.2071 67.875ZM67.7461 58.9805L69.8555 65.2266H64.9805L67.1016 58.957C67.1241 58.8868 67.1456 58.8151 67.1661 58.7417C67.2657 58.3855 67.3414 57.9922 67.3932 57.5619C67.3937 57.5582 67.3941 57.5545 67.3946 57.5508H67.4766C67.477 57.5541 67.4775 57.5574 67.4779 57.5607C67.5479 58.0839 67.6156 58.4809 67.6812 58.7517C67.7031 58.842 67.7247 58.9182 67.7461 58.9805ZM65.6775 64.7266L67.4198 59.5768L69.1589 64.7266H65.6775Z" fill="black"/>
<path fill-rule="evenodd" clip-rule="evenodd" d="M50 20H13C10.7909 20 9 21.7909 9 24V45C9 47.2091 10.7909 49 13 49H50C52.2091 49 54 47.2091 54 45V24C54 21.7909 52.2091 20 50 20ZM13 14C7.47715 14 3 18.4772 3 24V45C3 50.5228 7.47715 55 13 55H50C55.5228 55 60 50.5228 60 45V24C60 18.4772 55.5228 14 50 14H13Z" fill="black"/>
<path fill-rule="evenodd" clip-rule="evenodd" d="M39 58V73C39 78.5228 43.4772 83 49 83H86C91.5228 83 96 78.5228 96 73V52C96 46.4772 91.5228 42 86 42H63V48H86C88.2091 48 90 49.7909 90 52V73C90 75.2091 88.2091 77 86 77H49C46.7909 77 45 75.2091 45 73V58H39Z" fill="black"/>
</svg>
