<svg width="100" height="100" viewBox="0 0 100 100" fill="none" xmlns="http://www.w3.org/2000/svg">
<path d="M29.1667 45.8334H37.5001V54.1667H29.1667V45.8334ZM29.1667 62.5H37.5001V70.8334H29.1667V62.5ZM45.8334 45.8334H54.1667V54.1667H45.8334V45.8334ZM45.8334 62.5H54.1667V70.8334H45.8334V62.5ZM62.5001 45.8334H70.8334V54.1667H62.5001V45.8334ZM62.5001 62.5H70.8334V70.8334H62.5001V62.5Z" fill="black"/>
<path d="M20.8333 91.6667H79.1667C83.7625 91.6667 87.5 87.9292 87.5 83.3334V25C87.5 20.4042 83.7625 16.6667 79.1667 16.6667H70.8333V8.33337H62.5V16.6667H37.5V8.33337H29.1667V16.6667H20.8333C16.2375 16.6667 12.5 20.4042 12.5 25V83.3334C12.5 87.9292 16.2375 91.6667 20.8333 91.6667ZM79.1667 33.3334L79.1708 83.3334H20.8333V33.3334H79.1667Z" fill="black"/>
</svg>
